<svg width="42.65246047973633px" height="65.13499908447265px" xmlns="http://www.w3.org/2000/svg" viewBox="228.67376976013185 42.43250045776367 42.65246047973633 65.13499908447265" style="background: none;" preserveAspectRatio="xMidYMid"><defs><linearGradient id="editing-gradient-gradient" x1="0.9993147673772869" x2="0.0006852326227130834" y1="0.4738320218785281" y2="0.5261679781214719" gradientUnits="objectBoundingBox"><stop offset="0" stop-color="#030303"></stop><stop offset="1" stop-color="#030303"></stop></linearGradient></defs><g><g transform="translate(242.23062467575073, 85)"><path d="M-0.48-7.55L6.02-7.55L6.02-5.70L3.87-5.70L3.87-3.90L3.87-3.90Q3.87-3.49 3.97-3.07L3.97-3.07L3.97-3.07Q4.06-2.66 4.27-2.32L4.27-2.32L4.27-2.32Q4.48-1.98 4.83-1.78L4.83-1.78L4.83-1.78Q5.18-1.57 5.70-1.57L5.70-1.57L7.07-1.57L7.07-17.82L4.22-17.82L4.22-19.68L15.30-19.68L15.30-17.82L12.45-17.82L12.45-4.16L12.45-4.16Q12.45-2.88 12.11-2.03L12.11-2.03L12.11-2.03Q11.78-1.18 11.07-0.66L11.07-0.66L11.07-0.66Q10.37-0.13 9.28 0.10L9.28 0.10L9.28 0.10Q8.19 0.32 6.69 0.32L6.69 0.32L6.69 0.32Q5.25 0.32 4.32 0.03L4.32 0.03L4.32 0.03Q3.39-0.26 2.85-0.78L2.85-0.78L2.85-0.78Q2.30-1.31 2.08-2.10L2.08-2.10L2.08-2.10Q1.86-2.88 1.86-3.84L1.86-3.84L1.86-5.70L-0.48-5.70L-0.48-7.55Z" fill="url(#editing-gradient-gradient)"></path></g></g><style>text {
  font-size: 64px;
  font-family: Arial Black;
  dominant-baseline: central;
  text-anchor: middle;
}</style></svg>