<svg width="446.147509765625px" height="111.20515441894531px" xmlns="http://www.w3.org/2000/svg" viewBox="26.926245117187506 19.397422790527344 446.147509765625 111.20515441894531" style="background: none;" preserveAspectRatio="xMidYMid"><defs><linearGradient id="editing-gradient-gradient" x1="0.9993147673772869" x2="0.0006852326227130834" y1="0.4738320218785281" y2="0.5261679781214719" gradientUnits="objectBoundingBox"><stop offset="0" stop-color="#030303"></stop><stop offset="1" stop-color="#030303"></stop></linearGradient></defs><g><g transform="translate(94.28687381744385, 97.11000061035156)"><path d="M-0.96-15.10L12.03-15.10L12.03-11.39L7.74-11.39L7.74-7.81L7.74-7.81Q7.74-6.98 7.94-6.14L7.94-6.14L7.94-6.14Q8.13-5.31 8.54-4.64L8.54-4.64L8.54-4.64Q8.96-3.97 9.66-3.55L9.66-3.55L9.66-3.55Q10.37-3.14 11.39-3.14L11.39-3.14L14.14-3.14L14.14-35.65L8.45-35.65L8.45-39.36L30.59-39.36L30.59-35.65L24.90-35.65L24.90-8.32L24.90-8.32Q24.90-5.76 24.22-4.06L24.22-4.06L24.22-4.06Q23.55-2.37 22.14-1.31L22.14-1.31L22.14-1.31Q20.74-0.26 18.56 0.19L18.56 0.19L18.56 0.19Q16.38 0.64 13.38 0.64L13.38 0.64L13.38 0.64Q10.50 0.64 8.64 0.06L8.64 0.06L8.64 0.06Q6.78-0.51 5.70-1.57L5.70-1.57L5.70-1.57Q4.61-2.62 4.16-4.19L4.16-4.19L4.16-4.19Q3.71-5.76 3.71-7.68L3.71-7.68L3.71-11.39L-0.96-11.39L-0.96-15.10ZM44.61-14.27L44.61-14.27L44.61-14.27Q44.61-11.78 44.77-9.63L44.77-9.63L44.77-9.63Q44.93-7.49 45.18-5.95L45.18-5.95L45.18-5.95Q45.44-4.10 45.76-2.62L45.76-2.62L45.76-2.62Q46.08-2.50 46.59-2.43L46.59-2.43L46.59-2.43Q47.42-2.24 49.02-2.24L49.02-2.24L49.02-2.24Q50.56-2.24 51.46-2.43L51.46-2.43L51.46-2.43Q51.97-2.50 52.29-2.62L52.29-2.62L52.29-2.62Q52.61-4.10 52.86-5.95L52.86-5.95L52.86-5.95Q53.06-7.49 53.25-9.63L53.25-9.63L53.25-9.63Q53.44-11.78 53.44-14.27L53.44-14.27L53.44-14.27Q53.44-16.77 53.25-18.88L53.25-18.88L53.25-18.88Q53.06-20.99 52.86-22.59L52.86-22.59L52.86-22.59Q52.61-24.38 52.29-25.92L52.29-25.92L52.29-25.92Q51.90-25.98 51.39-26.11L51.39-26.11L51.39-26.11Q50.94-26.18 50.34-26.24L50.34-26.24L50.34-26.24Q49.73-26.30 49.02-26.30L49.02-26.30L49.02-26.30Q48.19-26.30 47.62-26.24L47.62-26.24L47.62-26.24Q47.04-26.18 46.59-26.11L46.59-26.11L46.59-26.11Q46.08-25.98 45.76-25.92L45.76-25.92L45.76-25.92Q45.44-24.38 45.18-22.59L45.18-22.59L45.18-22.59Q44.93-20.99 44.77-18.88L44.77-18.88L44.77-18.88Q44.61-16.77 44.61-14.27ZM34.11-14.27L34.11-14.27L34.11-14.27Q34.11-18.37 34.88-21.22L34.88-21.22L34.88-21.22Q35.65-24.06 37.44-25.82L37.44-25.82L37.44-25.82Q39.23-27.58 42.05-28.38L42.05-28.38L42.05-28.38Q44.86-29.18 49.02-29.18L49.02-29.18L49.02-29.18Q53.12-29.18 55.97-28.38L55.97-28.38L55.97-28.38Q58.82-27.58 60.61-25.82L60.61-25.82L60.61-25.82Q62.40-24.06 63.17-21.22L63.17-21.22L63.17-21.22Q63.94-18.37 63.94-14.27L63.94-14.27L63.94-14.27Q63.94-10.18 63.17-7.33L63.17-7.33L63.17-7.33Q62.40-4.48 60.61-2.72L60.61-2.72L60.61-2.72Q58.82-0.96 55.97-0.16L55.97-0.16L55.97-0.16Q53.12 0.64 49.02 0.64L49.02 0.64L49.02 0.64Q44.86 0.64 42.05-0.16L42.05-0.16L42.05-0.16Q39.23-0.96 37.44-2.72L37.44-2.72L37.44-2.72Q35.65-4.48 34.88-7.33L34.88-7.33L34.88-7.33Q34.11-10.18 34.11-14.27ZM66.50-36.16L66.50-39.36L70.27-39.36L80.38-41.22L80.38-25.79L80.38-25.79Q82.18-27.33 84.32-28.22L84.32-28.22L84.32-28.22Q86.46-29.12 88.83-29.12L88.83-29.12L88.83-29.12Q91.46-29.12 93.50-28.32L93.50-28.32L93.50-28.32Q95.55-27.52 96.93-25.76L96.93-25.76L96.93-25.76Q98.30-24 99.01-21.15L99.01-21.15L99.01-21.15Q99.71-18.30 99.71-14.27L99.71-14.27L99.71-14.27Q99.71-10.18 98.94-7.33L98.94-7.33L98.94-7.33Q98.18-4.48 96.38-2.72L96.38-2.72L96.38-2.72Q94.59-0.96 91.74-0.19L91.74-0.19L91.74-0.19Q88.90 0.58 84.80 0.58L84.80 0.58L84.80 0.58Q82.37 0.58 80.16 0.16L80.16 0.16L80.16 0.16Q77.95-0.26 76.67-0.58L76.67-0.58L70.27-0.26L70.27-36.16L66.50-36.16ZM88.06-25.66L88.06-25.66L88.06-25.66Q85.95-25.66 83.94-24.29L83.94-24.29L83.94-24.29Q81.92-22.91 80.38-20.86L80.38-20.86L80.38-2.88L80.38-2.88Q81.47-2.56 82.62-2.43L82.62-2.43L82.62-2.43Q83.78-2.30 84.80-2.30L84.80-2.30L84.80-2.30Q86.34-2.30 87.23-2.50L87.23-2.50L87.23-2.50Q87.74-2.56 88.06-2.69L88.06-2.69L88.06-2.69Q88.38-4.16 88.64-5.95L88.64-5.95L88.64-5.95Q88.83-7.49 89.02-9.63L89.02-9.63L89.02-9.63Q89.22-11.78 89.22-14.27L89.22-14.27L89.22-14.27Q89.22-17.34 89.02-19.49L89.02-19.49L89.02-19.49Q88.83-21.63 88.64-23.04L88.64-23.04L88.64-23.04Q88.38-24.70 88.06-25.66ZM103.55-39.36L125.70-39.36L125.70-35.65L120-35.65L120-3.71L125.70-3.71L125.70 0L103.55 0L103.55-3.71L109.25-3.71L109.25-35.65L103.55-35.65L103.55-39.36ZM129.22-24.38L129.22-27.58L132.99-27.58L142.66-29.44L142.66-24.96L142.66-24.96Q142.78-25.15 143.36-25.86L143.36-25.86L143.36-25.86Q143.94-26.56 145.09-27.30L145.09-27.30L145.09-27.30Q146.24-28.03 148.10-28.61L148.10-28.61L148.10-28.61Q149.95-29.18 152.64-29.18L152.64-29.18L152.64-29.18Q154.11-29.18 155.62-28.93L155.62-28.93L155.62-28.93Q157.12-28.67 158.37-28L158.37-28L158.37-28Q159.62-27.33 160.38-26.18L160.38-26.18L160.38-26.18Q161.15-25.02 161.15-23.17L161.15-23.17L161.15-3.26L164.93-3.26L164.93 0L151.04 0L151.04-25.22L151.04-25.22Q150.91-25.22 150.66-25.28L150.66-25.28L150.66-25.28Q150.14-25.41 149.25-25.41L149.25-25.41L149.25-25.41Q147.90-25.41 146.85-24.86L146.85-24.86L146.85-24.86Q145.79-24.32 145.02-23.62L145.02-23.62L145.02-23.62Q144.26-22.91 143.78-22.18L143.78-22.18L143.78-22.18Q143.30-21.44 143.10-21.06L143.10-21.06L143.10-3.26L146.88-3.26L146.88 0L129.22 0L129.22-3.26L132.99-3.26L132.99-24.38L129.22-24.38ZM167.81-25.02L167.81-28.22L171.58-28.22L181.70-29.76L181.70-3.26L185.47-3.26L185.47 0L167.81 0L167.81-3.26L171.58-3.26L171.58-25.02L167.81-25.02ZM171.58-38.21L171.58-38.21L171.58-38.21Q171.58-40.90 172.74-42.21L172.74-42.21L172.74-42.21Q173.89-43.52 176.64-43.52L176.64-43.52L176.64-43.52Q179.52-43.52 180.61-42.21L180.61-42.21L180.61-42.21Q181.70-40.90 181.70-38.21L181.70-38.21L181.70-38.21Q181.70-35.46 180.51-34.21L180.51-34.21L180.51-34.21Q179.33-32.96 176.64-32.96L176.64-32.96L176.64-32.96Q173.89-32.96 172.74-34.21L172.74-34.21L172.74-34.21Q171.58-35.46 171.58-38.21ZM202.62-29.06L202.62-29.06L202.62-29.06Q204.10-29.06 205.31-28.83L205.31-28.83L205.31-28.83Q206.53-28.61 207.49-28.29L207.49-28.29L211.78-29.25L211.78-19.39L211.78-19.39Q209.34-19.39 207.78-20.13L207.78-20.13L207.78-20.13Q206.21-20.86 205.25-21.92L205.25-21.92L205.25-21.92Q204.29-22.98 203.81-24.16L203.81-24.16L203.81-24.16Q203.33-25.34 203.14-26.18L203.14-26.18L202.62-26.18L202.62-26.18Q202.05-26.18 201.63-26.14L201.63-26.14L201.63-26.14Q201.22-26.11 200.90-26.05L200.90-26.05L200.90-26.05Q200.58-25.98 200.38-25.92L200.38-25.92L200.38-25.92Q200.19-25.66 200.06-25.28L200.06-25.28L200.06-25.28Q199.94-24.96 199.87-24.38L199.87-24.38L199.87-24.38Q199.81-23.81 199.81-23.04L199.81-23.04L199.81-23.04Q199.81-21.82 200.06-21.06L200.06-21.06L200.06-21.06Q200.32-20.29 200.86-19.78L200.86-19.78L200.86-19.78Q201.41-19.26 202.30-18.94L202.30-18.94L202.30-18.94Q203.20-18.62 204.54-18.24L204.54-18.24L204.54-18.24Q206.27-17.79 207.97-17.12L207.97-17.12L207.97-17.12Q209.66-16.45 211.01-15.36L211.01-15.36L211.01-15.36Q212.35-14.27 213.22-12.64L213.22-12.64L213.22-12.64Q214.08-11.01 214.08-8.70L214.08-8.70L214.08-8.70Q214.08-6.14 213.18-4.38L213.18-4.38L213.18-4.38Q212.29-2.62 210.66-1.54L210.66-1.54L210.66-1.54Q209.02-0.45 206.62 0.03L206.62 0.03L206.62 0.03Q204.22 0.51 201.28 0.51L201.28 0.51L201.28 0.51Q198.85 0.51 197.22 0.29L197.22 0.29L197.22 0.29Q195.58 0.06 194.62-0.26L194.62-0.26L190.21 0.70L190.21-9.79L190.21-9.79Q192.58-9.79 194.18-8.96L194.18-8.96L194.18-8.96Q195.78-8.13 196.74-6.98L196.74-6.98L196.74-6.98Q197.70-5.82 198.14-4.58L198.14-4.58L198.14-4.58Q198.59-3.33 198.78-2.43L198.78-2.43L198.78-2.43Q199.17-2.37 199.49-2.37L199.49-2.37L201.34-2.37L201.34-2.37Q201.92-2.37 202.37-2.43L202.37-2.43L202.37-2.43Q202.88-2.50 203.33-2.56L203.33-2.56L203.33-2.56Q203.46-2.82 203.58-3.26L203.58-3.26L203.58-3.26Q203.71-3.65 203.81-4.29L203.81-4.29L203.81-4.29Q203.90-4.93 203.90-5.82L203.90-5.82L203.90-5.82Q203.90-7.68 202.85-8.77L202.85-8.77L202.85-8.77Q201.79-9.86 200.19-10.59L200.19-10.59L200.19-10.59Q198.59-11.33 196.77-12L196.77-12L196.77-12Q194.94-12.67 193.34-13.66L193.34-13.66L193.34-13.66Q191.74-14.66 190.69-16.29L190.69-16.29L190.69-16.29Q189.63-17.92 189.63-20.67L189.63-20.67L189.63-20.67Q189.63-22.59 190.30-24.16L190.30-24.16L190.30-24.16Q190.98-25.73 192.48-26.82L192.48-26.82L192.48-26.82Q193.98-27.90 196.48-28.48L196.48-28.48L196.48-28.48Q198.98-29.06 202.62-29.06ZM233.79-36.16L233.79-39.36L237.57-39.36L247.68-41.22L247.68-3.20L248.51-3.20L248.51-3.20Q249.09-3.20 249.66-3.26L249.66-3.26L251.07-3.39L251.07-0.32L251.07-0.32Q249.92-0.13 248.83 0L248.83 0L248.83 0Q247.94 0.13 246.91 0.19L246.91 0.19L246.91 0.19Q245.89 0.26 245.25 0.26L245.25 0.26L245.25 0.26Q242.11 0.26 240.51-0.90L240.51-0.90L240.51-0.90Q238.91-2.05 238.21-3.39L238.21-3.39L238.21-3.39Q236.35-1.54 234.02-0.51L234.02-0.51L234.02-0.51Q231.68 0.51 229.12 0.51L229.12 0.51L229.12 0.51Q226.50 0.51 224.45-0.29L224.45-0.29L224.45-0.29Q222.40-1.09 221.02-2.85L221.02-2.85L221.02-2.85Q219.65-4.61 218.94-7.46L218.94-7.46L218.94-7.46Q218.24-10.30 218.24-14.34L218.24-14.34L218.24-14.34Q218.24-18.43 219.01-21.28L219.01-21.28L219.01-21.28Q219.78-24.13 221.57-25.89L221.57-25.89L221.57-25.89Q223.36-27.65 226.18-28.42L226.18-28.42L226.18-28.42Q228.99-29.18 233.15-29.18L233.15-29.18L233.15-29.18Q234.30-29.18 235.39-29.06L235.39-29.06L237.57-28.80L237.57-36.16L233.79-36.16ZM229.89-2.94L229.89-2.94L229.89-2.94Q232.00-2.94 234.02-4.29L234.02-4.29L234.02-4.29Q236.03-5.63 237.57-7.68L237.57-7.68L237.57-25.66L237.57-25.66Q236.48-25.98 235.30-26.14L235.30-26.14L235.30-26.14Q234.11-26.30 233.15-26.30L233.15-26.30L233.15-26.30Q232.32-26.30 231.74-26.24L231.74-26.24L231.74-26.24Q231.17-26.18 230.72-26.11L230.72-26.11L230.72-26.11Q230.21-25.98 229.89-25.92L229.89-25.92L229.89-25.92Q229.57-24.38 229.31-22.59L229.31-22.59L229.31-22.59Q229.06-21.06 228.90-18.94L228.90-18.94L228.90-18.94Q228.74-16.83 228.74-14.34L228.74-14.34L228.74-14.34Q228.74-11.26 228.90-9.12L228.90-9.12L228.90-9.12Q229.06-6.98 229.31-5.57L229.31-5.57L229.31-5.57Q229.57-3.90 229.89-2.94ZM269.12-29.18L269.12-29.18L269.12-29.18Q272.64-29.18 274.94-28.51L274.94-28.51L274.94-28.51Q277.25-27.84 278.66-26.37L278.66-26.37L278.66-26.37Q280.06-24.90 280.64-22.50L280.64-22.50L280.64-22.50Q281.22-20.10 281.22-16.58L281.22-16.58L281.22-16.58Q281.22-15.49 281.15-14.69L281.15-14.69L281.15-14.69Q281.09-13.89 281.02-13.38L281.02-13.38L281.02-13.38Q280.96-12.74 280.90-12.42L280.90-12.42L265.09-12.42L265.09-12.42Q265.15-10.24 265.34-8.48L265.34-8.48L265.34-8.48Q265.54-6.72 265.73-5.44L265.73-5.44L265.73-5.44Q265.98-3.90 266.24-2.75L266.24-2.75L266.24-2.75Q266.43-2.62 266.82-2.56L266.82-2.56L266.82-2.56Q267.14-2.50 267.74-2.46L267.74-2.46L267.74-2.46Q268.35-2.43 269.31-2.43L269.31-2.43L269.31-2.43Q270.91-2.43 272.35-2.66L272.35-2.66L272.35-2.66Q273.79-2.88 274.88-3.39L274.88-3.39L274.88-3.39Q275.97-3.90 276.58-4.83L276.58-4.83L276.58-4.83Q277.18-5.76 277.18-7.10L277.18-7.10L280.64-7.10L280.64-7.10Q280.64-4.42 279.46-2.88L279.46-2.88L279.46-2.88Q278.27-1.34 276.51-0.54L276.51-0.54L276.51-0.54Q274.75 0.26 272.70 0.45L272.70 0.45L272.70 0.45Q270.66 0.64 268.86 0.64L268.86 0.64L268.86 0.64Q264.96 0.64 262.24-0.16L262.24-0.16L262.24-0.16Q259.52-0.96 257.82-2.72L257.82-2.72L257.82-2.72Q256.13-4.48 255.36-7.33L255.36-7.33L255.36-7.33Q254.59-10.18 254.59-14.27L254.59-14.27L254.59-14.27Q254.59-18.37 255.26-21.22L255.26-21.22L255.26-21.22Q255.94-24.06 257.60-25.82L257.60-25.82L257.60-25.82Q259.26-27.58 262.05-28.38L262.05-28.38L262.05-28.38Q264.83-29.18 269.12-29.18ZM266.24-25.92L266.24-25.92L266.24-25.92Q265.92-24.51 265.66-22.85L265.66-22.85L265.66-22.85Q265.47-21.38 265.28-19.42L265.28-19.42L265.28-19.42Q265.09-17.47 265.09-15.17L265.09-15.17L271.30-15.17L271.30-15.17Q271.17-17.86 270.98-19.87L270.98-19.87L270.98-19.87Q270.78-21.89 270.53-23.23L270.53-23.23L270.53-23.23Q270.27-24.83 269.95-25.92L269.95-25.92L269.95-25.92Q269.76-25.98 269.50-26.11L269.50-26.11L269.50-26.11Q269.25-26.18 268.90-26.24L268.90-26.24L268.90-26.24Q268.54-26.30 268.10-26.30L268.10-26.30L268.10-26.30Q267.65-26.30 267.33-26.24L267.33-26.24L267.33-26.24Q267.01-26.18 266.75-26.11L266.75-26.11L266.75-26.11Q266.50-25.98 266.24-25.92ZM285.38-24.38L285.38-27.58L289.15-27.58L298.82-29.44L298.82-25.34L298.82-25.34Q298.88-25.54 299.30-26.14L299.30-26.14L299.30-26.14Q299.71-26.75 300.64-27.42L300.64-27.42L300.64-27.42Q301.57-28.10 303.07-28.64L303.07-28.64L303.07-28.64Q304.58-29.18 306.88-29.18L306.88-29.18L306.88-29.18Q308.29-29.18 309.09-29.12L309.09-29.12L309.09-29.12Q309.89-29.06 310.34-28.99L310.34-28.99L310.34-28.99Q310.85-28.93 310.98-28.86L310.98-28.86L310.98-16.51L310.98-16.51Q308.67-16.51 307.14-17.41L307.14-17.41L307.14-17.41Q305.60-18.30 304.64-19.65L304.64-19.65L304.64-19.65Q303.68-20.99 303.17-22.46L303.17-22.46L303.17-22.46Q302.66-23.94 302.46-25.09L302.46-25.09L302.46-25.09Q301.89-24.77 301.38-24.22L301.38-24.22L301.38-24.22Q300.86-23.68 300.45-23.07L300.45-23.07L300.45-23.07Q300.03-22.46 299.71-21.92L299.71-21.92L299.71-21.92Q299.39-21.38 299.26-21.06L299.26-21.06L299.26-3.26L303.04-3.26L303.04 0L285.38 0L285.38-3.26L289.15-3.26L289.15-24.38L285.38-24.38Z" fill="url(#editing-gradient-gradient)"></path></g></g><style>text {
  font-size: 64px;
  font-family: Arial Black;
  dominant-baseline: central;
  text-anchor: middle;
}</style></svg>